<svg xmlns="http://www.w3.org/2000/svg" xmlns:xlink="http://www.w3.org/1999/xlink" viewBox="0,0,256,256" width="64px" height="64px"><g fill-opacity="0" fill="#fcc419" fill-rule="nonzero" stroke="none" stroke-width="1" stroke-linecap="butt" stroke-linejoin="miter" stroke-miterlimit="10" stroke-dasharray="" stroke-dashoffset="0" font-family="none" font-weight="none" font-size="none" text-anchor="none" style="mix-blend-mode: normal"><path d="M0,256v-256h256v256z" id="bgRectangle"></path></g><g fill="none" fill-rule="nonzero" stroke="none" stroke-width="1" stroke-linecap="butt" stroke-linejoin="miter" stroke-miterlimit="10" stroke-dasharray="" stroke-dashoffset="0" font-family="none" font-weight="none" font-size="none" text-anchor="none" style="mix-blend-mode: normal"><g transform="scale(4,4)"><path d="M32,14c-17.12083,0 -31,8.13678 -31,18.174c0,10.03722 13.87917,18.174 31,18.174c17.12083,0 31,-8.13678 31,-18.174c0,-10.03722 -13.87917,-18.174 -31,-18.174z" fill="#b5c4e0"></path><path d="M32,14c-17.121,0 -31,8.137 -31,18.174c0,10.037 13.879,18.174 31,18.174c17.121,0 31,-8.137 31,-18.174c0,-10.037 -13.879,-18.174 -31,-18.174zM32,45.348c-15.322,0 -26,-6.942 -26,-13.174c0,-6.231 10.678,-13.174 26,-13.174c15.322,0 26,6.943 26,13.174c0,6.231 -10.678,13.174 -26,13.174z" fill="#ced9ed"></path><path d="M42.435,26.435l-2.733,14.826h3.566l0.71,-4.043h2.219c4.645,0 7.172,-1.076 8.117,-5.062c0.813,-3.425 -1.264,-5.72 -4.69,-5.72h-7.189zM46.786,34.522h-2.305l1.018,-5.391h2.778c2.302,0 2.786,1.038 2.666,2.193c-0.309,2.973 -2.163,3.198 -4.157,3.198zM14.13,26.435l-2.733,14.826h3.566l0.71,-4.043h2.219c4.645,0 7.172,-1.076 8.117,-5.062c0.813,-3.425 -1.264,-5.72 -4.69,-5.72h-7.189zM18.481,34.522h-2.305l1.018,-5.391h2.778c2.302,0 2.786,1.038 2.666,2.193c-0.309,2.973 -2.162,3.198 -4.157,3.198zM39.311,27.415c-0.762,-0.698 -2.104,-0.98 -4.105,-0.98h-3.153l1.124,-5.391h-3.537l-3.379,16.174h3.538l1.706,-8.087h2.828c0.902,0 1.497,0.151 1.775,0.449c0.276,0.301 0.337,0.867 0.177,1.686l-1.291,5.952h3.593l1.399,-6.44c0.3,-1.544 0.073,-2.676 -0.675,-3.363z" fill="#8d6c9e"></path><path d="M32,51.348c-17.645,0 -32,-8.602 -32,-19.174c0,-10.572 14.355,-19.174 32,-19.174c17.645,0 32,8.602 32,19.174c0,10.572 -14.355,19.174 -32,19.174zM32,15c-16.542,0 -30,7.704 -30,17.174c0,9.47 13.458,17.174 30,17.174c16.542,0 30,-7.704 30,-17.174c0,-9.47 -13.458,-17.174 -30,-17.174zM58.693,50.667c-0.33,0 -0.653,-0.163 -0.845,-0.463l-1.074,-1.687c-0.297,-0.466 -0.159,-1.084 0.307,-1.381c0.464,-0.296 1.083,-0.16 1.381,0.307l1.074,1.687c0.297,0.466 0.159,1.084 -0.307,1.381c-0.166,0.105 -0.352,0.156 -0.536,0.156zM54.446,53.004c-0.375,0 -0.734,-0.212 -0.905,-0.573l-0.854,-1.809c-0.235,-0.499 -0.021,-1.096 0.478,-1.331c0.501,-0.237 1.095,-0.021 1.331,0.478l0.854,1.809c0.235,0.499 0.021,1.096 -0.478,1.331c-0.138,0.065 -0.283,0.095 -0.426,0.095zM49.969,54.817c-0.414,0 -0.802,-0.26 -0.945,-0.673l-0.654,-1.891c-0.181,-0.522 0.097,-1.092 0.618,-1.272c0.521,-0.18 1.091,0.097 1.272,0.618l0.654,1.891c0.181,0.522 -0.097,1.092 -0.618,1.272c-0.108,0.038 -0.219,0.055 -0.327,0.055zM45.344,56.171c-0.451,0 -0.86,-0.308 -0.971,-0.766l-0.47,-1.944c-0.13,-0.536 0.2,-1.077 0.737,-1.206c0.529,-0.131 1.076,0.2 1.206,0.737l0.47,1.944c0.13,0.536 -0.2,1.077 -0.737,1.206c-0.078,0.02 -0.157,0.029 -0.235,0.029zM40.621,57.093c-0.487,0 -0.914,-0.356 -0.988,-0.853l-0.296,-1.979c-0.081,-0.546 0.295,-1.055 0.842,-1.137c0.552,-0.074 1.056,0.296 1.137,0.842l0.296,1.979c0.081,0.546 -0.295,1.055 -0.842,1.137c-0.05,0.007 -0.1,0.011 -0.149,0.011zM35.841,57.596c-0.522,0 -0.963,-0.406 -0.997,-0.936l-0.129,-1.996c-0.035,-0.551 0.383,-1.026 0.934,-1.063c0.544,-0.027 1.027,0.383 1.063,0.934l0.129,1.996c0.035,0.551 -0.383,1.026 -0.934,1.063c-0.022,0.001 -0.045,0.002 -0.066,0.002z" fill="#8d6c9f"></path><g fill="#8d6c9f"><path d="M21.862,21.161c-0.448,0 -0.856,-0.304 -0.97,-0.759c-0.133,-0.536 0.194,-1.079 0.729,-1.212c1.345,-0.334 2.766,-0.618 4.224,-0.845c0.547,-0.084 1.057,0.289 1.142,0.834c0.085,0.546 -0.289,1.057 -0.834,1.142c-1.4,0.218 -2.762,0.49 -4.049,0.81c-0.081,0.021 -0.162,0.03 -0.242,0.03z"></path></g><g fill="#8d6c9f"><path d="M6.999,29.997c-0.163,0 -0.328,-0.04 -0.481,-0.124c-0.481,-0.266 -0.659,-0.869 -0.396,-1.352c0.109,-0.2 2.767,-4.925 11.424,-8.091c0.516,-0.191 1.092,0.077 1.282,0.596c0.19,0.519 -0.077,1.093 -0.596,1.282c-7.884,2.883 -10.334,7.133 -10.357,7.175c-0.183,0.329 -0.525,0.514 -0.876,0.514z"></path></g></g></g></svg>